<?xml version="1.0" encoding="UTF-8" standalone="no"?>
<!DOCTYPE svg PUBLIC "-//W3C//DTD SVG 1.1//EN"
 "http://www.w3.org/Graphics/SVG/1.1/DTD/svg11.dtd">
<!-- Generated by graphviz version 5.0.0 (20220707.1540)
 -->
<!-- Title: Tree Pages: 1 -->
<svg width="690pt" height="552pt"
 viewBox="0.00 0.00 690.00 552.00" xmlns="http://www.w3.org/2000/svg" xmlns:xlink="http://www.w3.org/1999/xlink">
<g id="graph0" class="graph" transform="scale(1 1) rotate(0) translate(4 548)">
<title>Tree</title>
<polygon fill="white" stroke="transparent" points="-4,4 -4,-548 686,-548 686,4 -4,4"/>
<!-- 0 -->
<g id="node1" class="node">
<title>0</title>
<path fill="#ffffff" stroke="black" d="M551.5,-544C551.5,-544 421.5,-544 421.5,-544 415.5,-544 409.5,-538 409.5,-532 409.5,-532 409.5,-473 409.5,-473 409.5,-467 415.5,-461 421.5,-461 421.5,-461 551.5,-461 551.5,-461 557.5,-461 563.5,-467 563.5,-473 563.5,-473 563.5,-532 563.5,-532 563.5,-538 557.5,-544 551.5,-544"/>
<text text-anchor="start" x="420" y="-528.8" font-family="Helvetica,sans-Serif" font-size="14.00">risk_birthweight ≤ 0.5</text>
<text text-anchor="start" x="457.5" y="-513.8" font-family="Helvetica,sans-Serif" font-size="14.00">gini = 0.5</text>
<text text-anchor="start" x="435" y="-498.8" font-family="Helvetica,sans-Serif" font-size="14.00">samples = 1843</text>
<text text-anchor="start" x="417.5" y="-483.8" font-family="Helvetica,sans-Serif" font-size="14.00">value = [921.5, 921.5]</text>
<text text-anchor="start" x="449.5" y="-468.8" font-family="Helvetica,sans-Serif" font-size="14.00">class = Yes</text>
</g>
<!-- 1 -->
<g id="node2" class="node">
<title>1</title>
<path fill="#fae7da" stroke="black" d="M472.5,-425C472.5,-425 290.5,-425 290.5,-425 284.5,-425 278.5,-419 278.5,-413 278.5,-413 278.5,-354 278.5,-354 278.5,-348 284.5,-342 290.5,-342 290.5,-342 472.5,-342 472.5,-342 478.5,-342 484.5,-348 484.5,-354 484.5,-354 484.5,-413 484.5,-413 484.5,-419 478.5,-425 472.5,-425"/>
<text text-anchor="start" x="286.5" y="-409.8" font-family="Helvetica,sans-Serif" font-size="14.00">risk_wayofeatingdrinking ≤ 0.5</text>
<text text-anchor="start" x="344" y="-394.8" font-family="Helvetica,sans-Serif" font-size="14.00">gini = 0.495</text>
<text text-anchor="start" x="330" y="-379.8" font-family="Helvetica,sans-Serif" font-size="14.00">samples = 1575</text>
<text text-anchor="start" x="296" y="-364.8" font-family="Helvetica,sans-Serif" font-size="14.00">value = [827.073, 670.899]</text>
<text text-anchor="start" x="344.5" y="-349.8" font-family="Helvetica,sans-Serif" font-size="14.00">class = Yes</text>
</g>
<!-- 0&#45;&gt;1 -->
<g id="edge1" class="edge">
<title>0&#45;&gt;1</title>
<path fill="none" stroke="black" d="M450.07,-460.91C441.85,-451.74 433.04,-441.93 424.57,-432.49"/>
<polygon fill="black" stroke="black" points="427.15,-430.13 417.86,-425.02 421.94,-434.8 427.15,-430.13"/>
<text text-anchor="middle" x="416.52" y="-446.28" font-family="Helvetica,sans-Serif" font-size="14.00">True</text>
</g>
<!-- 2 -->
<g id="node9" class="node">
<title>2</title>
<path fill="#84c2ef" stroke="black" d="M670,-417.5C670,-417.5 515,-417.5 515,-417.5 509,-417.5 503,-411.5 503,-405.5 503,-405.5 503,-361.5 503,-361.5 503,-355.5 509,-349.5 515,-349.5 515,-349.5 670,-349.5 670,-349.5 676,-349.5 682,-355.5 682,-361.5 682,-361.5 682,-405.5 682,-405.5 682,-411.5 676,-417.5 670,-417.5"/>
<text text-anchor="start" x="555" y="-402.3" font-family="Helvetica,sans-Serif" font-size="14.00">gini = 0.398</text>
<text text-anchor="start" x="545" y="-387.3" font-family="Helvetica,sans-Serif" font-size="14.00">samples = 268</text>
<text text-anchor="start" x="511" y="-372.3" font-family="Helvetica,sans-Serif" font-size="14.00">value = [94.427, 250.601]</text>
<text text-anchor="start" x="559" y="-357.3" font-family="Helvetica,sans-Serif" font-size="14.00">class = No</text>
</g>
<!-- 0&#45;&gt;2 -->
<g id="edge8" class="edge">
<title>0&#45;&gt;2</title>
<path fill="none" stroke="black" d="M523.28,-460.91C533.77,-449.32 545.21,-436.7 555.71,-425.11"/>
<polygon fill="black" stroke="black" points="558.33,-427.43 562.45,-417.67 553.14,-422.73 558.33,-427.43"/>
<text text-anchor="middle" x="563.68" y="-438.94" font-family="Helvetica,sans-Serif" font-size="14.00">False</text>
</g>
<!-- 3 -->
<g id="node3" class="node">
<title>3</title>
<path fill="#f8dcc8" stroke="black" d="M367,-306C367,-306 204,-306 204,-306 198,-306 192,-300 192,-294 192,-294 192,-235 192,-235 192,-229 198,-223 204,-223 204,-223 367,-223 367,-223 373,-223 379,-229 379,-235 379,-235 379,-294 379,-294 379,-300 373,-306 367,-306"/>
<text text-anchor="start" x="217.5" y="-290.8" font-family="Helvetica,sans-Serif" font-size="14.00">insurance_yn_0 ≤ 0.5</text>
<text text-anchor="start" x="248" y="-275.8" font-family="Helvetica,sans-Serif" font-size="14.00">gini = 0.487</text>
<text text-anchor="start" x="234" y="-260.8" font-family="Helvetica,sans-Serif" font-size="14.00">samples = 1525</text>
<text text-anchor="start" x="200" y="-245.8" font-family="Helvetica,sans-Serif" font-size="14.00">value = [819.706, 593.943]</text>
<text text-anchor="start" x="248.5" y="-230.8" font-family="Helvetica,sans-Serif" font-size="14.00">class = Yes</text>
</g>
<!-- 1&#45;&gt;3 -->
<g id="edge2" class="edge">
<title>1&#45;&gt;3</title>
<path fill="none" stroke="black" d="M348.19,-341.91C340.75,-332.83 332.78,-323.12 325.11,-313.77"/>
<polygon fill="black" stroke="black" points="327.8,-311.53 318.75,-306.02 322.39,-315.97 327.8,-311.53"/>
</g>
<!-- 4 -->
<g id="node8" class="node">
<title>4</title>
<path fill="#4ca6e7" stroke="black" d="M547.5,-298.5C547.5,-298.5 409.5,-298.5 409.5,-298.5 403.5,-298.5 397.5,-292.5 397.5,-286.5 397.5,-286.5 397.5,-242.5 397.5,-242.5 397.5,-236.5 403.5,-230.5 409.5,-230.5 409.5,-230.5 547.5,-230.5 547.5,-230.5 553.5,-230.5 559.5,-236.5 559.5,-242.5 559.5,-242.5 559.5,-286.5 559.5,-286.5 559.5,-292.5 553.5,-298.5 547.5,-298.5"/>
<text text-anchor="start" x="441" y="-283.3" font-family="Helvetica,sans-Serif" font-size="14.00">gini = 0.159</text>
<text text-anchor="start" x="435" y="-268.3" font-family="Helvetica,sans-Serif" font-size="14.00">samples = 50</text>
<text text-anchor="start" x="405.5" y="-253.3" font-family="Helvetica,sans-Serif" font-size="14.00">value = [7.367, 76.956]</text>
<text text-anchor="start" x="445" y="-238.3" font-family="Helvetica,sans-Serif" font-size="14.00">class = No</text>
</g>
<!-- 1&#45;&gt;4 -->
<g id="edge7" class="edge">
<title>1&#45;&gt;4</title>
<path fill="none" stroke="black" d="M415.15,-341.91C424.67,-330.43 435.03,-317.94 444.56,-306.44"/>
<polygon fill="black" stroke="black" points="447.31,-308.6 451,-298.67 441.93,-304.13 447.31,-308.6"/>
</g>
<!-- 5 -->
<g id="node4" class="node">
<title>5</title>
<path fill="#eb9e67" stroke="black" d="M263,-187C263,-187 108,-187 108,-187 102,-187 96,-181 96,-175 96,-175 96,-116 96,-116 96,-110 102,-104 108,-104 108,-104 263,-104 263,-104 269,-104 275,-110 275,-116 275,-116 275,-175 275,-175 275,-181 269,-187 263,-187"/>
<text text-anchor="start" x="104" y="-171.8" font-family="Helvetica,sans-Serif" font-size="14.00">risk_nutritionalstatus ≤ 0.5</text>
<text text-anchor="start" x="148" y="-156.8" font-family="Helvetica,sans-Serif" font-size="14.00">gini = 0.306</text>
<text text-anchor="start" x="138" y="-141.8" font-family="Helvetica,sans-Serif" font-size="14.00">samples = 850</text>
<text text-anchor="start" x="104" y="-126.8" font-family="Helvetica,sans-Serif" font-size="14.00">value = [527.719, 122.34]</text>
<text text-anchor="start" x="148.5" y="-111.8" font-family="Helvetica,sans-Serif" font-size="14.00">class = Yes</text>
</g>
<!-- 3&#45;&gt;5 -->
<g id="edge3" class="edge">
<title>3&#45;&gt;5</title>
<path fill="none" stroke="black" d="M250.81,-222.91C243.05,-213.83 234.75,-204.12 226.76,-194.77"/>
<polygon fill="black" stroke="black" points="229.29,-192.35 220.13,-187.02 223.97,-196.9 229.29,-192.35"/>
</g>
<!-- 6 -->
<g id="node7" class="node">
<title>6</title>
<path fill="#b4daf5" stroke="black" d="M468,-179.5C468,-179.5 305,-179.5 305,-179.5 299,-179.5 293,-173.5 293,-167.5 293,-167.5 293,-123.5 293,-123.5 293,-117.5 299,-111.5 305,-111.5 305,-111.5 468,-111.5 468,-111.5 474,-111.5 480,-117.5 480,-123.5 480,-123.5 480,-167.5 480,-167.5 480,-173.5 474,-179.5 468,-179.5"/>
<text text-anchor="start" x="349" y="-164.3" font-family="Helvetica,sans-Serif" font-size="14.00">gini = 0.472</text>
<text text-anchor="start" x="339" y="-149.3" font-family="Helvetica,sans-Serif" font-size="14.00">samples = 675</text>
<text text-anchor="start" x="301" y="-134.3" font-family="Helvetica,sans-Serif" font-size="14.00">value = [291.987, 471.603]</text>
<text text-anchor="start" x="353" y="-119.3" font-family="Helvetica,sans-Serif" font-size="14.00">class = No</text>
</g>
<!-- 3&#45;&gt;6 -->
<g id="edge6" class="edge">
<title>3&#45;&gt;6</title>
<path fill="none" stroke="black" d="M320.54,-222.91C330.45,-211.43 341.23,-198.94 351.16,-187.44"/>
<polygon fill="black" stroke="black" points="353.98,-189.52 357.87,-179.67 348.68,-184.95 353.98,-189.52"/>
</g>
<!-- 7 -->
<g id="node5" class="node">
<title>7</title>
<path fill="#e78c4a" stroke="black" d="M167,-68C167,-68 12,-68 12,-68 6,-68 0,-62 0,-56 0,-56 0,-12 0,-12 0,-6 6,0 12,0 12,0 167,0 167,0 173,0 179,-6 179,-12 179,-12 179,-56 179,-56 179,-62 173,-68 167,-68"/>
<text text-anchor="start" x="52" y="-52.8" font-family="Helvetica,sans-Serif" font-size="14.00">gini = 0.146</text>
<text text-anchor="start" x="42" y="-37.8" font-family="Helvetica,sans-Serif" font-size="14.00">samples = 772</text>
<text text-anchor="start" x="8" y="-22.8" font-family="Helvetica,sans-Serif" font-size="14.00">value = [502.271, 43.411]</text>
<text text-anchor="start" x="52.5" y="-7.8" font-family="Helvetica,sans-Serif" font-size="14.00">class = Yes</text>
</g>
<!-- 5&#45;&gt;7 -->
<g id="edge4" class="edge">
<title>5&#45;&gt;7</title>
<path fill="none" stroke="black" d="M149.75,-103.73C141.84,-94.7 133.44,-85.12 125.52,-76.08"/>
<polygon fill="black" stroke="black" points="127.92,-73.51 118.69,-68.3 122.65,-78.13 127.92,-73.51"/>
</g>
<!-- 8 -->
<g id="node6" class="node">
<title>8</title>
<path fill="#79bded" stroke="black" d="M355.5,-68C355.5,-68 209.5,-68 209.5,-68 203.5,-68 197.5,-62 197.5,-56 197.5,-56 197.5,-12 197.5,-12 197.5,-6 203.5,0 209.5,0 209.5,0 355.5,0 355.5,0 361.5,0 367.5,-6 367.5,-12 367.5,-12 367.5,-56 367.5,-56 367.5,-62 361.5,-68 355.5,-68"/>
<text text-anchor="start" x="245" y="-52.8" font-family="Helvetica,sans-Serif" font-size="14.00">gini = 0.369</text>
<text text-anchor="start" x="239" y="-37.8" font-family="Helvetica,sans-Serif" font-size="14.00">samples = 78</text>
<text text-anchor="start" x="205.5" y="-22.8" font-family="Helvetica,sans-Serif" font-size="14.00">value = [25.448, 78.929]</text>
<text text-anchor="start" x="249" y="-7.8" font-family="Helvetica,sans-Serif" font-size="14.00">class = No</text>
</g>
<!-- 5&#45;&gt;8 -->
<g id="edge5" class="edge">
<title>5&#45;&gt;8</title>
<path fill="none" stroke="black" d="M221.62,-103.73C229.7,-94.61 238.27,-84.93 246.35,-75.81"/>
<polygon fill="black" stroke="black" points="248.99,-78.11 253,-68.3 243.75,-73.46 248.99,-78.11"/>
</g>
</g>
</svg>
